<svg xmlns="http://www.w3.org/2000/svg" xmlns:xlink="http://www.w3.org/1999/xlink" viewBox="0 0 460.5 317">
<defs><style>.cls-1{fill:#f2f2f2;}.cls-2{fill:#fff;}.cls-3,.cls-5{fill:none;}.cls-4{fill:#17486e;}.cls-5{stroke:#17486e;stroke-linecap:round;stroke-linejoin:round;stroke-width:2px;}.cls-6{fill:url(#linear-gradient);}</style>
<linearGradient id="linear-gradient" x1="62.68" y1="163.64" x2="253.07" y2="163.64" gradientUnits="userSpaceOnUse"><stop offset="0" stop-color="#0675c1"/><stop offset="0.19" stop-color="#308693"/><stop offset="0.47" stop-color="#699e55"/><stop offset="0.71" stop-color="#93af27"/><stop offset="0.89" stop-color="#acba0b"/><stop offset="1" stop-color="#b6be00"/></linearGradient></defs>
<g><circle class="cls-1" cx="312.54" cy="169.04" r="147.96"/><rect class="cls-2" x="23.63" y="68.43" width="268.5" height="194.97"/><rect class="cls-3" x="239.05" y="25.7" width="20.89" height="21.81" rx="6.96" ry="6.96"/><rect class="cls-3" x="271.42" y="25.7" width="20.88" height="21.81" rx="6.96" ry="6.96"/><rect class="cls-3" x="206.68" y="25.7" width="20.88" height="21.81" rx="6.96" ry="6.96"/><rect class="cls-4" x="206.68" y="25.7" width="20.88" height="21.81" rx="6.96" ry="6.96"/><rect class="cls-4" x="239.05" y="25.7" width="20.89" height="21.81" rx="6.96" ry="6.96"/><rect class="cls-4" x="271.42" y="25.7" width="20.88" height="21.81" rx="6.96" ry="6.96"/><path class="cls-5" d="M295.9,1h-276A18.88,18.88,0,0,0,1,19.86V267.17A18.88,18.88,0,0,0,19.85,286h276a18.88,18.88,0,0,0,18.85-18.86V19.86A18.88,18.88,0,0,0,295.9,1ZM239.05,32.66a7,7,0,0,1,7-7h7a7,7,0,0,1,7,7v7.89a7,7,0,0,1-7,7h-7a7,7,0,0,1-7-7Zm-32.37,0a7,7,0,0,1,7-7h7a7,7,0,0,1,7,7v7.89a7,7,0,0,1-7,7h-7a7,7,0,0,1-7-7ZM292.12,263.4H23.62v-195h268.5v195Zm.18-222.85a7,7,0,0,1-7,7h-7a7,7,0,0,1-7-7V32.66a7,7,0,0,1,7-7h7a7,7,0,0,1,7,7Z"/><rect class="cls-5" x="23.63" y="68.43" width="268.5" height="194.97"/><path class="cls-6" d="M68.35,173.13l50.47,23.47a9.82,9.82,0,0,0,13.94-8.9v-.26a9.83,9.83,0,0,0-5.68-8.89L95.52,163.88l31.56-14.66a9.86,9.86,0,0,0,5.68-8.9v-.25a9.82,9.82,0,0,0-9.82-9.81,10,10,0,0,0-4.13.91L68.35,154.64a9.82,9.82,0,0,0-5.67,8.89v.7a9.85,9.85,0,0,0,5.67,8.9Zm64.86,47.8a9.84,9.84,0,0,0,7.91,4h.26a9.77,9.77,0,0,0,9.33-6.82l33.25-103a9.81,9.81,0,0,0-9.34-12.8h-.25a9.77,9.77,0,0,0-9.34,6.81l-33.25,103a9.84,9.84,0,0,0,1.43,8.77ZM183,140.32a9.86,9.86,0,0,0,5.68,8.9l31.56,14.67-31.56,14.66a9.83,9.83,0,0,0-5.68,8.89v.26a9.82,9.82,0,0,0,9.81,9.81,9.9,9.9,0,0,0,4.14-.91l50.46-23.47a9.85,9.85,0,0,0,5.67-8.89v-.71a9.84,9.84,0,0,0-5.67-8.89l-50.47-23.47a9.82,9.82,0,0,0-13.94,8.9Z"/>
</g>
</svg>