<svg xmlns="http://www.w3.org/2000/svg" xmlns:xlink="http://www.w3.org/1999/xlink" viewBox="0 0 264.3 185.12">
<defs><style>.cls-1{fill:#f2f2f2;}.cls-2,.cls-3{fill:#fff;}.cls-2{stroke:#17486e;stroke-linecap:round;stroke-linejoin:round;stroke-width:2px;}.cls-4{fill:url(#linear-gradient);}.cls-5{fill:url(#linear-gradient-2);}</style>
<linearGradient id="linear-gradient" x1="24.93" y1="110.19" x2="68.07" y2="67.06" gradientUnits="userSpaceOnUse"><stop offset="0" stop-color="#0675c1"/><stop offset="0.19" stop-color="#308693"/><stop offset="0.47" stop-color="#699e55"/><stop offset="0.71" stop-color="#93af27"/><stop offset="0.89" stop-color="#acba0b"/><stop offset="1" stop-color="#b6be00"/></linearGradient><linearGradient id="linear-gradient-2" x1="136.93" y1="110.19" x2="180.07" y2="67.06" xlink:href="#linear-gradient"/></defs>
<g><circle class="cls-1" cx="171.74" cy="92.56" r="92.56"/><path class="cls-2" d="M190.22,55.91c-1.12-1.08-2.33-2.13-3.58-3.13L169.57,38.3a44.82,44.82,0,0,0-22.9-8.21l.92.92L137.22,20.6h-.08a16.25,16.25,0,0,0-26.4,7,14.67,14.67,0,0,0-7.12-2.29c-.41,0-.87,0-1.29,0a15.09,15.09,0,0,0-8,2.33,16.26,16.26,0,0,0-26.4-7h-.08L57.45,31.05l.92-.91a45,45,0,0,0-22.9,8.2L18.4,52.83A36.35,36.35,0,0,0,14.82,56a45.28,45.28,0,1,0,76.4,38.13,22.71,22.71,0,0,0,22.56,0A45.28,45.28,0,0,0,204,88.46a44.86,44.86,0,0,0-13.78-32.55ZM102.54,84.26a10,10,0,1,1,10-10,10,10,0,0,1-10,10Z"/><path class="cls-3" d="M46.3,69.19A19.29,19.29,0,0,0,27,88.46a4.62,4.62,0,1,0,9.24,0A10.11,10.11,0,0,1,46.34,78.39a4.6,4.6,0,1,0,0-9.2Z"/><circle class="cls-4" cx="46.5" cy="88.62" r="30.5"/><path class="cls-3" d="M46.3,69.19A19.29,19.29,0,0,0,27,88.46a4.62,4.62,0,1,0,9.24,0A10.11,10.11,0,0,1,46.34,78.39a4.6,4.6,0,1,0,0-9.2Z"/><circle class="cls-5" cx="158.5" cy="88.62" r="30.5"/><path class="cls-3" d="M158.79,69.19a19.29,19.29,0,0,0-19.28,19.27,4.63,4.63,0,1,0,9.25,0,10.1,10.1,0,0,1,10.07-10.07,4.6,4.6,0,1,0,0-9.2Z"/>
</g>
</svg>