<svg xmlns="http://www.w3.org/2000/svg" xmlns:xlink="http://www.w3.org/1999/xlink" viewBox="0 0 194.81 185.6"><defs>
<style>.cls-1{fill:#f2f2f2;}.cls-2{fill:#fff;}.cls-3{fill:#17486e;}.cls-4{opacity:0.9;fill:url(#linear-gradient);}</style>
<linearGradient id="linear-gradient" y1="55.94" x2="145.63" y2="55.94" gradientUnits="userSpaceOnUse"><stop offset="0" stop-color="#0675c1"/><stop offset="0.19" stop-color="#308693"/><stop offset="0.47" stop-color="#699e55"/><stop offset="0.71" stop-color="#93af27"/><stop offset="0.89" stop-color="#acba0b"/><stop offset="1" stop-color="#b6be00"/></linearGradient></defs>
<g><circle class="cls-1" cx="116.9" cy="107.7" r="77.9"/><rect class="cls-2" x="45.25" y="101.55" width="22.07" height="64.91" rx="1" ry="1"/><path class="cls-3" d="M66.33,102.55v62.91H46.25V102.55H66.33m0-2H46.25a2,2,0,0,0-2,2v62.91a2,2,0,0,0,2,2H66.33a2,2,0,0,0,2-2V102.55a2,2,0,0,0-2-2Z"/><rect class="cls-2" x="11.79" y="121.62" width="22.08" height="44.83" rx="1" ry="1"/><path class="cls-3" d="M32.87,122.62v42.84H12.79V122.62H32.87m0-2H12.79a2,2,0,0,0-2,2v42.84a2,2,0,0,0,2,2H32.87a2,2,0,0,0,2-2V122.62a2,2,0,0,0-2-2Z"/><rect class="cls-2" x="82.73" y="85.48" width="22.08" height="80.97" rx="1" ry="1"/><path class="cls-3" d="M103.81,86.48v79H83.73v-79h20.08m0-2H83.73a2,2,0,0,0-2,2v79a2,2,0,0,0,2,2h20.08a2,2,0,0,0,2-2v-79a2,2,0,0,0-2-2Z"/><polygon class="cls-4" points="137.72 44.99 145.63 0 100.64 10.09 114.53 23.16 75.41 63.83 56.03 46.45 0 103.92 8.18 111.89 8.17 111.88 56.56 62.26 75.99 79.68 122.84 30.98 137.72 44.99"/><rect class="cls-2" x="118.87" y="62.74" width="22.07" height="103.72" rx="1" ry="1"/><path class="cls-3" d="M139.94,63.74V165.46H119.87V63.74h20.07m0-2H119.87a2,2,0,0,0-2,2V165.46a2,2,0,0,0,2,2h20.07a2,2,0,0,0,2-2V63.74a2,2,0,0,0-2-2Z"/>
</g>
</svg>