<svg xmlns="http://www.w3.org/2000/svg" xmlns:xlink="http://www.w3.org/1999/xlink" width="930" height="90" viewBox="0 0 930 90">
  <defs>
    <rect id="studio-a" width="102.605" height="59.69" x="34.568" y="27.218" rx="8"/>
    <linearGradient id="studio-b" x1="93.67%" x2="-19.565%" y1="50%" y2="50%">
      <stop offset="0%" stop-color="#FFF" stop-opacity="0"/>
      <stop offset="100%" stop-color="#FFF"/>
    </linearGradient>
  </defs>
  <g fill="none" fill-rule="evenodd">
    <g transform="translate(-5)">
      <rect width="535.172" height="119.899" x=".037" y="14.029" fill="#FFF"/>
      <rect width="535.172" height="111.554" x=".037" y="36.383" fill="#E5E5E5"/>
      <rect width="535.172" height="17.059" x=".037" y=".207" fill="#0063B1"/>
      <ellipse cx="20.28" cy="8.737" fill="#FFF" fill-opacity=".75" rx="4.989" ry="5.046"/>
      <path fill="#FFF" fill-opacity=".75" d="M38.2629269,5.33187172 L120.645502,5.33187172 C122.504768,5.33187172 124.012001,6.856281 124.012001,8.73673515 C124.012001,10.6171893 122.504768,12.1415986 120.645502,12.1415986 L38.2629216,12.1415986 C36.4036554,12.1415986 34.8964222,10.6171893 34.8964222,8.73673515 C34.8964222,6.856281 36.4036554,5.33187172 38.2629216,5.33187172 Z"/>
      <path fill="#72A5D8" d="M27.3401846 43.7949231L35.5704529 43.7949231C36.9139966 43.7949231 38.0031539 44.8964923 38.0031539 46.2553467 38.0031539 47.6142012 36.9139966 48.7157703 35.5704529 48.7157703L27.3401844 48.7157703C25.9966408 48.7157703 24.9074834 47.6142012 24.9074834 46.2553467 24.9074834 44.8964923 25.9966408 43.7949231 27.3401844 43.7949231zM68.1699033 43.7949231L76.4001716 43.7949231C77.7437153 43.7949231 78.8328726 44.8964923 78.8328726 46.2553467 78.8328726 47.6142012 77.7437153 48.7157703 76.4001716 48.7157703L68.1699031 48.7157703C66.8263595 48.7157703 65.7372021 47.6142012 65.7372021 46.2553467 65.7372021 44.8964923 66.8263595 43.7949231 68.1699031 43.7949231zM107.730566 43.7949231L115.960834 43.7949231C117.304378 43.7949231 118.393535 44.8964923 118.393535 46.2553467 118.393535 47.6142012 117.304378 48.7157703 115.960834 48.7157703L107.730566 48.7157703C106.387022 48.7157703 105.297865 47.6142012 105.297865 46.2553467 105.297865 44.8964923 106.387022 43.7949231 107.730566 43.7949231zM147.30567 43.7949231L155.535939 43.7949231C156.879482 43.7949231 157.96864 44.8964923 157.96864 46.2553467 157.96864 47.6142012 156.879482 48.7157703 155.535939 48.7157703L147.30567 48.7157703C145.962126 48.7157703 144.872969 47.6142012 144.872969 46.2553467 144.872969 44.8964923 145.962126 43.7949231 147.30567 43.7949231zM186.880775 43.7949231L195.111043 43.7949231C196.454586 43.7949231 197.543744 44.8964923 197.543744 46.2553467 197.543744 47.6142012 196.454586 48.7157703 195.111043 48.7157703L186.880774 48.7157703C185.537231 48.7157703 184.448073 47.6142012 184.448073 46.2553467 184.448073 44.8964923 185.537231 43.7949231 186.880774 43.7949231z"/>
      <path fill="#C2C2C2" d="M16.7016352,23.7302536 L117.072147,23.7302536 C119.337378,23.7302536 121.17371,25.0587058 121.17371,26.6974347 C121.17371,28.3361635 119.337378,29.6646158 117.072147,29.6646158 L16.7016288,29.6646158 C14.4363984,29.6646158 12.6000664,28.3361635 12.6000664,26.6974347 C12.6000664,25.0587058 14.4363984,23.7302536 16.7016288,23.7302536 Z"/>
    </g>
    <g transform="translate(118 56)">
      <rect width="287.764" height="17.482" x=".859" y=".54" fill="#555964"/>
      <path fill="#FFF" fill-opacity=".75" d="M14.7249433,6.1122871 L86.2826034,6.1122871 C87.8975655,6.1122871 89.206751,7.43639179 89.206751,9.06975771 C89.206751,10.7031236 87.8975655,12.0272283 86.2826034,12.0272283 L14.7249431,12.0272283 C13.109981,12.0272283 11.8007955,10.7031236 11.8007955,9.06975771 C11.8007955,7.43639179 13.109981,6.1122871 14.7249431,6.1122871 Z"/>
      <rect width="90" height="2.965" x=".859" y="15.057" fill="#B4C933"/>
      <rect width="287.811" height="73.913" x=".859" y="18.127" fill="#F4F4F4"/>
      <path fill="#FFF" d="M137.372819,33.3633646 L152.541006,33.3633646 L152.541006,18.0223239 L137.372819,18.0223239 L137.372819,33.3633646 Z M107.036446,33.3633646 L122.204633,33.3633646 L122.204633,18.0223239 L107.036446,18.0223239 L107.036446,33.3633646 Z M76.7000722,33.3633646 L91.8679556,33.3633646 L91.8679556,18.0223239 L76.7000722,18.0223239 L76.7000722,33.3633646 Z M46.3636985,33.3633646 L61.5318854,33.3633646 L61.5318854,18.0223239 L46.3636985,18.0223239 L46.3636985,33.3633646 Z M16.0273249,33.3633646 L31.1952084,33.3633646 L31.1952084,18.0223239 L16.0273249,18.0223239 L16.0273249,33.3633646 Z M122.204633,48.7044053 L137.372819,48.7044053 L137.372819,33.3633646 L122.204633,33.3633646 L122.204633,48.7044053 Z M91.868259,48.7044053 L107.036446,48.7044053 L107.036446,33.3633646 L91.868259,33.3633646 L91.868259,48.7044053 Z M61.5318854,48.7044053 L76.7000722,48.7044053 L76.7000722,33.3633646 L61.5318854,33.3633646 L61.5318854,48.7044053 Z M31.1955117,48.7044053 L46.3636985,48.7044053 L46.3636985,33.3633646 L31.1955117,33.3633646 L31.1955117,48.7044053 Z M0.859138118,48.7044053 L16.0273249,48.7044053 L16.0273249,33.3633646 L0.859138118,33.3633646 L0.859138118,48.7044053 Z M137.372819,64.045446 L152.541006,64.045446 L152.541006,48.7044053 L137.372819,48.7044053 L137.372819,64.045446 Z M107.036446,64.045446 L122.204633,64.045446 L122.204633,48.7044053 L107.036446,48.7044053 L107.036446,64.045446 Z M76.7000722,64.045446 L91.8679556,64.045446 L91.8679556,48.7044053 L76.7000722,48.7044053 L76.7000722,64.045446 Z M46.3636985,64.045446 L61.5318854,64.045446 L61.5318854,48.7044053 L46.3636985,48.7044053 L46.3636985,64.045446 Z M16.0273249,64.045446 L31.1952084,64.045446 L31.1952084,48.7044053 L16.0273249,48.7044053 L16.0273249,64.045446 Z M122.204633,79.3864867 L137.372819,79.3864867 L137.372819,64.045446 L122.204633,64.045446 L122.204633,79.3864867 Z M91.868259,79.3864867 L107.036446,79.3864867 L107.036446,64.045446 L91.868259,64.045446 L91.868259,79.3864867 Z M61.5318854,79.3864867 L76.7000722,79.3864867 L76.7000722,64.045446 L61.5318854,64.045446 L61.5318854,79.3864867 Z M31.1955117,79.3864867 L46.3636985,79.3864867 L46.3636985,64.045446 L31.1955117,64.045446 L31.1955117,79.3864867 Z M0.859138118,79.3864867 L0.859138118,64.045446 L16.0273249,64.045446 L16.0273249,79.3864867 L0.859138118,79.3864867 Z M258.718314,33.3633646 L258.718314,18.0223239 L273.886501,18.0223239 L273.886501,33.3633646 L258.718314,33.3633646 Z M228.38194,33.3633646 L228.38194,18.0223239 L243.549824,18.0223239 L243.549824,33.3633646 L228.38194,33.3633646 Z M198.045567,33.3633646 L198.045567,18.0223239 L213.213753,18.0223239 L213.213753,33.3633646 L198.045567,33.3633646 Z M167.709193,33.3633646 L167.709193,18.0223239 L182.877076,18.0223239 L182.877076,33.3633646 L167.709193,33.3633646 Z M273.886501,48.7044053 L273.886501,33.3633646 L289.054688,33.3633646 L289.054688,48.7044053 L273.886501,48.7044053 Z M243.550127,48.7044053 L243.550127,33.3633646 L258.718314,33.3633646 L258.718314,48.7044053 L243.550127,48.7044053 Z M213.213753,48.7044053 L213.213753,33.3633646 L228.38194,33.3633646 L228.38194,48.7044053 L213.213753,48.7044053 Z M182.87738,48.7044053 L182.87738,33.3633646 L198.045567,33.3633646 L198.045567,48.7044053 L182.87738,48.7044053 Z M152.541006,48.7044053 L152.541006,33.3633646 L167.709193,33.3633646 L167.709193,48.7044053 L152.541006,48.7044053 Z M258.718314,64.045446 L258.718314,48.7044053 L273.886501,48.7044053 L273.886501,64.045446 L258.718314,64.045446 Z M228.38194,64.045446 L228.38194,48.7044053 L243.549824,48.7044053 L243.549824,64.045446 L228.38194,64.045446 Z M198.045567,64.045446 L198.045567,48.7044053 L213.213753,48.7044053 L213.213753,64.045446 L198.045567,64.045446 Z M167.709193,64.045446 L167.709193,48.7044053 L182.877076,48.7044053 L182.877076,64.045446 L167.709193,64.045446 Z M273.886501,79.3864867 L273.886501,64.045446 L289.054688,64.045446 L289.054688,79.3864867 L273.886501,79.3864867 Z M243.550127,79.3864867 L243.550127,64.045446 L258.718314,64.045446 L258.718314,79.3864867 L243.550127,79.3864867 Z M213.213753,79.3864867 L213.213753,64.045446 L228.38194,64.045446 L228.38194,79.3864867 L213.213753,79.3864867 Z M182.87738,79.3864867 L182.87738,64.045446 L198.045567,64.045446 L198.045567,79.3864867 L182.87738,79.3864867 Z M152.541006,79.3864867 L152.541006,64.045446 L167.709193,64.045446 L167.709193,79.3864867 L152.541006,79.3864867 Z"/>
      <use fill="#EAEAFB" style="mix-blend-mode:multiply" xlink:href="#studio-a"/>
      <rect width="102.105" height="59.19" x="34.818" y="27.468" stroke="#C7D6F6" stroke-width=".5" rx="8"/>
    </g>
    <rect width="5.863" height="5.93" x="8.537" y="43.337" fill="#266092"/>
    <rect width="5.863" height="5.93" x="49.367" y="43.337" fill="#266092"/>
    <rect width="5.863" height="5.93" x="88.927" y="43.337" fill="#266092"/>
    <rect width="5.863" height="5.93" x="128.503" y="43.337" fill="#266092"/>
    <rect width="5.863" height="5.93" x="168.078" y="43.337" fill="#266092"/>
    <polygon fill="#FFF" stroke="#D5D5D5" points="8.785 56.277 45.563 56.277 45.563 64.36 108.503 64.36 108.503 147.145 8.537 147.145"/>
    <ellipse cx="468.126" cy="7.98" fill="#FFF" fill-opacity=".65" rx="4.241" ry="4.289"/>
    <ellipse cx="492.239" cy="7.98" fill="#FFF" fill-opacity=".65" rx="4.241" ry="4.289"/>
    <ellipse cx="515.892" cy="7.98" fill="#FFF" fill-opacity=".65" rx="4.241" ry="4.289"/>
    <polygon fill="#FFF" stroke="#D5D5D5" points="417.653 56.277 457.662 56.277 457.662 64.36 520.046 64.36 520.046 147.145 417.441 147.145"/>
    <rect width="285.234" height="93" x="-3" fill="url(#studio-b)"/>
  </g>
</svg>
